<svg xmlns="http://www.w3.org/2000/svg" viewBox="0 0 3600 3600" width="500" height="500"><defs><linearGradient id="grd1" gradientUnits="userSpaceOnUse"  x1="603.25" y1="1700.73" x2="2890.83" y2="1700.73"><stop offset="0" stop-color="#d79d3a"  /><stop offset="0.1" stop-color="#daa040"  /><stop offset="0.23" stop-color="#e1aa50"  /><stop offset="0.38" stop-color="#eeb96c"  /><stop offset="0.5" stop-color="#fbc988"  /><stop offset="0.58" stop-color="#f8c583"  /><stop offset="0.68" stop-color="#f0b974"  /><stop offset="0.79" stop-color="#e2a45b"  /><stop offset="0.9" stop-color="#ce8838"  /><stop offset="1" stop-color="#bb6c15"  /></linearGradient><linearGradient id="grd2" gradientUnits="userSpaceOnUse"  x1="1610107.573" y1="3623408.901" x2="6843129.83" y2="3623408.901"><stop offset="0" stop-color="#d79d3a"  /><stop offset="0.1" stop-color="#daa040"  /><stop offset="0.23" stop-color="#e1aa50"  /><stop offset="0.38" stop-color="#eeb96c"  /><stop offset="0.5" stop-color="#fbc988"  /><stop offset="0.58" stop-color="#f8c583"  /><stop offset="0.68" stop-color="#f0b974"  /><stop offset="0.79" stop-color="#e2a45b"  /><stop offset="0.9" stop-color="#ce8838"  /><stop offset="1" stop-color="#bb6c15"  /></linearGradient><linearGradient id="grd3" gradientUnits="userSpaceOnUse"  x1="1665491.209" y1="3896222.263" x2="6898513.466" y2="3896222.263"><stop offset="0" stop-color="#d79d3a"  /><stop offset="0.1" stop-color="#daa040"  /><stop offset="0.23" stop-color="#e1aa50"  /><stop offset="0.38" stop-color="#eeb96c"  /><stop offset="0.5" stop-color="#fbc988"  /><stop offset="0.58" stop-color="#f8c583"  /><stop offset="0.68" stop-color="#f0b974"  /><stop offset="0.79" stop-color="#e2a45b"  /><stop offset="0.9" stop-color="#ce8838"  /><stop offset="1" stop-color="#bb6c15"  /></linearGradient></defs><style>tspan { white-space:pre }.shp0 { fill: url(#grd1) } .shp1 { fill: url(#grd2) } .shp2 { fill: url(#grd3) } </style><g ><path fill-rule="evenodd" class="shp0" d="M1747 2844.52C1592.59 2844.52 1442.8 2814.27 1301.79 2754.63C1234.03 2725.92 1169.19 2690.75 1108.17 2649.62C1047.15 2608.49 990.22 2561.58 938.19 2509.54C886.15 2457.51 839.24 2400.58 798.11 2339.56C756.98 2278.54 721.81 2213.7 693.1 2145.94C633.46 2004.94 603.21 1855.14 603.21 1700.73C603.21 1546.32 633.46 1396.53 693.1 1255.51C721.81 1187.75 756.97 1122.91 798.1 1061.89C839.23 1000.86 886.14 943.94 938.18 891.9C990.22 839.87 1047.14 792.96 1108.16 751.83C1169.19 710.7 1234.03 675.54 1301.79 646.83C1442.79 587.18 1592.59 556.94 1747 556.94C1901.41 556.94 2051.2 587.18 2192.22 646.83C2259.98 675.54 2324.82 710.7 2385.84 751.83C2446.87 792.96 2503.79 839.87 2555.83 891.9C2607.86 943.94 2654.77 1000.86 2695.9 1061.89C2737.03 1122.91 2772.19 1187.75 2800.9 1255.51C2860.55 1396.51 2890.79 1546.32 2890.79 1700.73C2890.79 1855.14 2860.55 2004.93 2800.9 2145.94C2772.19 2213.7 2737.03 2278.54 2695.9 2339.56C2654.76 2400.58 2607.86 2457.51 2555.82 2509.54C2503.78 2561.58 2446.86 2608.49 2385.84 2649.62C2324.82 2690.75 2259.98 2725.92 2192.22 2754.63C2051.24 2814.27 1901.45 2844.52 1747 2844.52ZM1747 568.94C1122.93 568.94 615.21 1076.66 615.21 1700.73C615.21 2324.8 1123 2832.52 1747 2832.52C2371 2832.52 2878.83 2324.8 2878.83 1700.73C2878.83 1076.66 2371.11 568.94 1747 568.94Z" /><path fill-rule="evenodd" class="shp1" d="M1847.33 2727.56C1692.92 2727.56 1543.13 2697.32 1402.11 2637.67C1334.35 2608.96 1269.51 2573.8 1208.49 2532.67C1147.47 2491.54 1090.55 2444.63 1038.51 2392.6C986.47 2340.56 939.57 2283.64 898.44 2222.62C857.3 2161.6 822.14 2096.76 793.43 2029C733.78 1888 703.54 1738.2 703.54 1583.79C703.54 1429.38 733.78 1279.59 793.43 1138.57C822.14 1070.81 857.31 1005.97 898.44 944.95C939.57 883.93 986.48 827.01 1038.51 774.97C1090.55 722.94 1147.47 676.03 1208.49 634.9C1269.51 593.77 1334.35 558.6 1402.11 529.89C1543.11 470.24 1692.92 440 1847.33 440C2001.74 440 2151.53 470.24 2292.55 529.89C2360.31 558.6 2425.15 593.77 2486.17 634.9C2547.19 676.03 2604.11 722.94 2656.15 774.97C2708.18 827.01 2755.09 883.93 2796.22 944.95C2837.35 1005.97 2872.52 1070.81 2901.23 1138.57C2960.88 1279.57 2991.12 1429.38 2991.12 1583.79C2991.12 1738.2 2960.88 1888 2901.23 2029C2872.52 2096.76 2837.36 2161.6 2796.23 2222.62C2755.09 2283.64 2708.19 2340.57 2656.15 2392.6C2604.11 2444.64 2547.19 2491.55 2486.17 2532.68C2425.15 2573.81 2360.31 2608.98 2292.55 2637.69C2151.53 2697.32 2001.74 2727.56 1847.33 2727.56ZM1847.33 451.98C1223.26 452 715.54 959.7 715.54 1583.77C715.54 2207.84 1223.26 2715.56 1847.33 2715.56C2471.4 2715.56 2979.12 2207.84 2979.12 1583.77C2979.12 959.7 2471.4 452 1847.33 452L1847.33 451.98Z" /><path fill-rule="evenodd" class="shp2" d="M1871.53 2846.75C1717.12 2846.75 1567.33 2816.51 1426.32 2756.87C1358.56 2728.16 1293.72 2692.99 1232.7 2651.86C1171.68 2610.73 1114.75 2563.82 1062.72 2511.78C1010.68 2459.75 963.77 2402.82 922.64 2341.8C881.51 2280.78 846.34 2215.94 817.63 2148.18C757.99 2007.18 727.74 1857.37 727.74 1702.97C727.74 1548.57 757.99 1398.77 817.63 1257.75C846.34 1189.99 881.5 1125.15 922.63 1064.13C963.77 1003.1 1010.67 946.18 1062.71 894.14C1114.75 842.1 1171.67 795.2 1232.7 754.06C1293.72 712.93 1358.56 677.77 1426.32 649.06C1567.32 589.42 1717.12 559.18 1871.53 559.18C2025.94 559.18 2175.73 589.42 2316.75 649.06C2384.51 677.77 2449.35 712.93 2510.37 754.06C2571.4 795.19 2628.32 842.1 2680.36 894.14C2732.39 946.18 2779.3 1003.1 2820.43 1064.12C2861.56 1125.15 2896.72 1189.99 2925.43 1257.75C2985.08 1398.75 3015.32 1548.56 3015.32 1702.97C3015.32 1857.38 2985.08 2007.17 2925.43 2148.18C2896.72 2215.94 2861.56 2280.78 2820.43 2341.8C2779.29 2402.82 2732.39 2459.75 2680.35 2511.78C2628.31 2563.82 2571.39 2610.73 2510.37 2651.86C2449.35 2692.99 2384.51 2728.16 2316.75 2756.87C2175.73 2816.51 2025.94 2846.75 1871.53 2846.75ZM739.74 1703C739.74 2327.1 1247.46 2834.78 1871.53 2834.78C2495.6 2834.78 3003.32 2327 3003.32 1703C3003.32 1079 2495.6 571.18 1871.53 571.18C1247.46 571.18 739.74 1078.9 739.74 1703Z" /></g></svg>